<?xml version="1.0" encoding="UTF-8" standalone="no"?>
<!-- Created with Inkscape (http://www.inkscape.org/) -->

<svg
   width="1024"
   height="1024"
   viewBox="0 0 270.93333 270.93333"
   version="1.1"
   id="svg1"
   inkscape:version="1.3.2 (091e20e, 2023-11-25, custom)"
   sodipodi:docname="AppIcon.svg"
   inkscape:export-filename="..\app\Assets.xcassets\LaunchScreenIcon.imageset\AppIcon.png"
   inkscape:export-xdpi="96"
   inkscape:export-ydpi="96"
   xml:space="preserve"
   xmlns:inkscape="http://www.inkscape.org/namespaces/inkscape"
   xmlns:sodipodi="http://sodipodi.sourceforge.net/DTD/sodipodi-0.dtd"
   xmlns:xlink="http://www.w3.org/1999/xlink"
   xmlns="http://www.w3.org/2000/svg"
   xmlns:svg="http://www.w3.org/2000/svg"><sodipodi:namedview
     id="namedview1"
     pagecolor="#505050"
     bordercolor="#eeeeee"
     borderopacity="1"
     inkscape:showpageshadow="0"
     inkscape:pageopacity="0"
     inkscape:pagecheckerboard="0"
     inkscape:deskcolor="#d1d1d1"
     inkscape:document-units="px"
     inkscape:zoom="0.3514415"
     inkscape:cx="280.27424"
     inkscape:cy="957.4851"
     inkscape:current-layer="layer3"
     showgrid="false" /><defs
     id="defs1"><color-profile
       name="sRGB-IEC61966-2.1"
       xlink:href="../../../../../../../WINDOWS/system32/spool/drivers/color/sRGB%20Color%20Space%20Profile.icm"
       id="color-profile2" /><clipPath
       clipPathUnits="userSpaceOnUse"
       id="clipPath58"><g
         id="g59"><rect
           width="325.12228"
           height="325.12228"
           style="fill:none;stroke-width:0.270935"
           id="rect58"
           x="-378.1265"
           y="-45.753845" /></g></clipPath><clipPath
       clipPathUnits="userSpaceOnUse"
       id="clipPath59"><g
         id="g60"><rect
           width="325.12228"
           height="325.12228"
           style="fill:none;stroke-width:0.270935"
           id="rect59"
           x="-378.1265"
           y="-45.753845" /></g></clipPath><mask
       maskUnits="userSpaceOnUse"
       id="mask78"><path
         d="m -269.4327,-18.660322 c -8.40442,0.0054 -22.57162,0.699013 -24.99378,0.923889 -7.19333,0.344088 -12.24085,1.500981 -17.85734,3.663044 -1.68522,0.647536 -3.3325,1.362805 -4.93915,2.170192 -1.50911,0.715269 -2.96403,1.514528 -4.39728,2.3625548 -0.0623,0.037931 -0.12734,0.070443 -0.18965,0.1083741 -9.92707,5.9253535 -18.0172,14.8011916 -22.95905,25.6223451 -0.23572,0.487683 -0.43079,0.997041 -0.65025,1.492853 -0.33054,0.777584 -0.65295,1.566005 -0.94827,2.359846 -1.78547,4.578805 -2.97758,9.40958 -3.4463,14.440847 -0.91034,12.46844 -1.32216,25.30806 -1.19482,29.504847 0.21404,6.927814 0.15714,27.513473 0.13546,52.81882 0.0217,25.30535 0.0786,45.89101 -0.13546,52.81883 -0.13005,4.19678 0.28448,17.03369 1.19482,29.50484 0.46872,5.03127 1.66083,9.86205 3.4463,14.44085 0.29803,0.79655 0.62044,1.58226 0.94827,2.36256 0.21946,0.49581 0.41724,1.00517 0.65025,1.49285 4.93914,10.82115 13.03198,19.69699 22.95905,25.62234 0.0623,0.0379 0.12734,0.0704 0.18965,0.10838 1.43325,0.84802 2.88817,1.64457 4.39728,2.35984 1.60665,0.8101 3.25393,1.52266 4.93915,2.1729 5.61649,2.16478 10.6613,3.31896 17.85734,3.66305 2.42216,0.22487 16.58936,0.91847 24.99378,0.92389 7.04431,0.005 27.9876,-0.15715 53.86734,-0.13547 25.87973,-0.0217 46.82573,0.14089 53.86734,0.13547 8.40441,-0.005 22.57161,-0.69902 24.99378,-0.92389 7.19333,-0.34409 12.23814,-1.49827 17.85734,-3.66305 1.6825,-0.65024 3.3325,-1.3628 4.93915,-2.1729 1.5091,-0.71527 2.96403,-1.51182 4.39727,-2.35984 0.0623,-0.0379 0.12734,-0.0704 0.18966,-0.10838 9.927066,-5.92535 18.017192,-14.80119 22.95905,-25.62234 0.233005,-0.48768 0.430787,-0.99704 0.650245,-1.49285 0.330541,-0.77759 0.652954,-1.56601 0.950983,-2.36256 1.782754,-4.5788 2.977578,-9.40958 3.446296,-14.44085 0.910342,-12.46844 1.322164,-25.30535 1.192115,-29.50484 -0.21133,-6.92782 -0.157143,-27.51348 -0.135468,-52.81883 -0.02168,-25.305347 -0.07586,-45.891006 0.135468,-52.81882 0.130049,-4.196787 -0.284482,-17.033698 -1.192115,-29.504847 -0.468718,-5.031267 -1.663542,-9.862042 -3.446296,-14.440847 -0.298029,-0.793841 -0.620442,-1.582262 -0.950983,-2.359846 -0.219458,-0.495812 -0.41724,-1.00517 -0.650245,-1.492853 -4.941858,-10.8211535 -13.031984,-19.6969916 -22.95905,-25.6223451 -0.0623,-0.037931 -0.12734,-0.070443 -0.18966,-0.1083741 -1.43324,-0.8480268 -2.88817,-1.6445768 -4.39727,-2.3625548 -1.60665,-0.807387 -3.25394,-1.522656 -4.93915,-2.170192 -5.61649,-2.164772 -10.66401,-3.318956 -17.85734,-3.663044 -2.42217,-0.224876 -16.58937,-0.91847 -24.99378,-0.923889 -7.04432,-0.0054 -27.98761,0.157142 -53.86734,0.135468 -25.87974,0.02167 -46.82574,-0.140887 -53.86734,-0.135468"
         style="fill:#ffffff;fill-opacity:1;stroke-width:0.270935"
         id="path78"
         clip-path="url(#clipPath58)"
         transform="translate(351.03196,18.660455)" /></mask><mask
       maskUnits="userSpaceOnUse"
       id="mask79"><path
         d="m -269.4327,-18.660322 c -8.40442,0.0054 -22.57162,0.699013 -24.99378,0.923889 -7.19333,0.344088 -12.24085,1.500981 -17.85734,3.663044 -1.68522,0.647536 -3.3325,1.362805 -4.93915,2.170192 -1.50911,0.715269 -2.96403,1.514528 -4.39728,2.3625548 -0.0623,0.037931 -0.12734,0.070443 -0.18965,0.1083741 -9.92707,5.9253535 -18.0172,14.8011916 -22.95905,25.6223451 -0.23572,0.487683 -0.43079,0.997041 -0.65025,1.492853 -0.33054,0.777584 -0.65295,1.566005 -0.94827,2.359846 -1.78547,4.578805 -2.97758,9.40958 -3.4463,14.440847 -0.91034,12.46844 -1.32216,25.30806 -1.19482,29.504847 0.21404,6.927814 0.15714,27.513473 0.13546,52.81882 0.0217,25.30535 0.0786,45.89101 -0.13546,52.81883 -0.13005,4.19678 0.28448,17.03369 1.19482,29.50484 0.46872,5.03127 1.66083,9.86205 3.4463,14.44085 0.29803,0.79655 0.62044,1.58226 0.94827,2.36256 0.21946,0.49581 0.41724,1.00517 0.65025,1.49285 4.93914,10.82115 13.03198,19.69699 22.95905,25.62234 0.0623,0.0379 0.12734,0.0704 0.18965,0.10838 1.43325,0.84802 2.88817,1.64457 4.39728,2.35984 1.60665,0.8101 3.25393,1.52266 4.93915,2.1729 5.61649,2.16478 10.6613,3.31896 17.85734,3.66305 2.42216,0.22487 16.58936,0.91847 24.99378,0.92389 7.04431,0.005 27.9876,-0.15715 53.86734,-0.13547 25.87973,-0.0217 46.82573,0.14089 53.86734,0.13547 8.40441,-0.005 22.57161,-0.69902 24.99378,-0.92389 7.19333,-0.34409 12.23814,-1.49827 17.85734,-3.66305 1.6825,-0.65024 3.3325,-1.3628 4.93915,-2.1729 1.5091,-0.71527 2.96403,-1.51182 4.39727,-2.35984 0.0623,-0.0379 0.12734,-0.0704 0.18966,-0.10838 9.927066,-5.92535 18.017192,-14.80119 22.95905,-25.62234 0.233005,-0.48768 0.430787,-0.99704 0.650245,-1.49285 0.330541,-0.77759 0.652954,-1.56601 0.950983,-2.36256 1.782754,-4.5788 2.977578,-9.40958 3.446296,-14.44085 0.910342,-12.46844 1.322164,-25.30535 1.192115,-29.50484 -0.21133,-6.92782 -0.157143,-27.51348 -0.135468,-52.81883 -0.02168,-25.305347 -0.07586,-45.891006 0.135468,-52.81882 0.130049,-4.196787 -0.284482,-17.033698 -1.192115,-29.504847 -0.468718,-5.031267 -1.663542,-9.862042 -3.446296,-14.440847 -0.298029,-0.793841 -0.620442,-1.582262 -0.950983,-2.359846 -0.219458,-0.495812 -0.41724,-1.00517 -0.650245,-1.492853 -4.941858,-10.8211535 -13.031984,-19.6969916 -22.95905,-25.6223451 -0.0623,-0.037931 -0.12734,-0.070443 -0.18966,-0.1083741 -1.43324,-0.8480268 -2.88817,-1.6445768 -4.39727,-2.3625548 -1.60665,-0.807387 -3.25394,-1.522656 -4.93915,-2.170192 -5.61649,-2.164772 -10.66401,-3.318956 -17.85734,-3.663044 -2.42217,-0.224876 -16.58937,-0.91847 -24.99378,-0.923889 -7.04432,-0.0054 -27.98761,0.157142 -53.86734,0.135468 -25.87974,0.02167 -46.82574,-0.140887 -53.86734,-0.135468"
         style="fill:#ffffff;fill-opacity:1;stroke-width:0.270935"
         id="path79"
         clip-path="url(#clipPath58)"
         transform="translate(351.03196,18.660455)" /></mask><mask
       maskUnits="userSpaceOnUse"
       id="mask80"><path
         d="m -269.4327,-18.660322 c -8.40442,0.0054 -22.57162,0.699013 -24.99378,0.923889 -7.19333,0.344088 -12.24085,1.500981 -17.85734,3.663044 -1.68522,0.647536 -3.3325,1.362805 -4.93915,2.170192 -1.50911,0.715269 -2.96403,1.514528 -4.39728,2.3625548 -0.0623,0.037931 -0.12734,0.070443 -0.18965,0.1083741 -9.92707,5.9253535 -18.0172,14.8011916 -22.95905,25.6223451 -0.23572,0.487683 -0.43079,0.997041 -0.65025,1.492853 -0.33054,0.777584 -0.65295,1.566005 -0.94827,2.359846 -1.78547,4.578805 -2.97758,9.40958 -3.4463,14.440847 -0.91034,12.46844 -1.32216,25.30806 -1.19482,29.504847 0.21404,6.927814 0.15714,27.513473 0.13546,52.81882 0.0217,25.30535 0.0786,45.89101 -0.13546,52.81883 -0.13005,4.19678 0.28448,17.03369 1.19482,29.50484 0.46872,5.03127 1.66083,9.86205 3.4463,14.44085 0.29803,0.79655 0.62044,1.58226 0.94827,2.36256 0.21946,0.49581 0.41724,1.00517 0.65025,1.49285 4.93914,10.82115 13.03198,19.69699 22.95905,25.62234 0.0623,0.0379 0.12734,0.0704 0.18965,0.10838 1.43325,0.84802 2.88817,1.64457 4.39728,2.35984 1.60665,0.8101 3.25393,1.52266 4.93915,2.1729 5.61649,2.16478 10.6613,3.31896 17.85734,3.66305 2.42216,0.22487 16.58936,0.91847 24.99378,0.92389 7.04431,0.005 27.9876,-0.15715 53.86734,-0.13547 25.87973,-0.0217 46.82573,0.14089 53.86734,0.13547 8.40441,-0.005 22.57161,-0.69902 24.99378,-0.92389 7.19333,-0.34409 12.23814,-1.49827 17.85734,-3.66305 1.6825,-0.65024 3.3325,-1.3628 4.93915,-2.1729 1.5091,-0.71527 2.96403,-1.51182 4.39727,-2.35984 0.0623,-0.0379 0.12734,-0.0704 0.18966,-0.10838 9.927066,-5.92535 18.017192,-14.80119 22.95905,-25.62234 0.233005,-0.48768 0.430787,-0.99704 0.650245,-1.49285 0.330541,-0.77759 0.652954,-1.56601 0.950983,-2.36256 1.782754,-4.5788 2.977578,-9.40958 3.446296,-14.44085 0.910342,-12.46844 1.322164,-25.30535 1.192115,-29.50484 -0.21133,-6.92782 -0.157143,-27.51348 -0.135468,-52.81883 -0.02168,-25.305347 -0.07586,-45.891006 0.135468,-52.81882 0.130049,-4.196787 -0.284482,-17.033698 -1.192115,-29.504847 -0.468718,-5.031267 -1.663542,-9.862042 -3.446296,-14.440847 -0.298029,-0.793841 -0.620442,-1.582262 -0.950983,-2.359846 -0.219458,-0.495812 -0.41724,-1.00517 -0.650245,-1.492853 -4.941858,-10.8211535 -13.031984,-19.6969916 -22.95905,-25.6223451 -0.0623,-0.037931 -0.12734,-0.070443 -0.18966,-0.1083741 -1.43324,-0.8480268 -2.88817,-1.6445768 -4.39727,-2.3625548 -1.60665,-0.807387 -3.25394,-1.522656 -4.93915,-2.170192 -5.61649,-2.164772 -10.66401,-3.318956 -17.85734,-3.663044 -2.42217,-0.224876 -16.58937,-0.91847 -24.99378,-0.923889 -7.04432,-0.0054 -27.98761,0.157142 -53.86734,0.135468 -25.87974,0.02167 -46.82574,-0.140887 -53.86734,-0.135468"
         style="fill:#ffffff;fill-opacity:1;stroke-width:0.270935"
         id="path80"
         clip-path="url(#clipPath58)"
         transform="translate(351.03196,18.660455)" /></mask><mask
       maskUnits="userSpaceOnUse"
       id="mask81"><path
         d="m -269.4327,-18.660322 c -8.40442,0.0054 -22.57162,0.699013 -24.99378,0.923889 -7.19333,0.344088 -12.24085,1.500981 -17.85734,3.663044 -1.68522,0.647536 -3.3325,1.362805 -4.93915,2.170192 -1.50911,0.715269 -2.96403,1.514528 -4.39728,2.3625548 -0.0623,0.037931 -0.12734,0.070443 -0.18965,0.1083741 -9.92707,5.9253535 -18.0172,14.8011916 -22.95905,25.6223451 -0.23572,0.487683 -0.43079,0.997041 -0.65025,1.492853 -0.33054,0.777584 -0.65295,1.566005 -0.94827,2.359846 -1.78547,4.578805 -2.97758,9.40958 -3.4463,14.440847 -0.91034,12.46844 -1.32216,25.30806 -1.19482,29.504847 0.21404,6.927814 0.15714,27.513473 0.13546,52.81882 0.0217,25.30535 0.0786,45.89101 -0.13546,52.81883 -0.13005,4.19678 0.28448,17.03369 1.19482,29.50484 0.46872,5.03127 1.66083,9.86205 3.4463,14.44085 0.29803,0.79655 0.62044,1.58226 0.94827,2.36256 0.21946,0.49581 0.41724,1.00517 0.65025,1.49285 4.93914,10.82115 13.03198,19.69699 22.95905,25.62234 0.0623,0.0379 0.12734,0.0704 0.18965,0.10838 1.43325,0.84802 2.88817,1.64457 4.39728,2.35984 1.60665,0.8101 3.25393,1.52266 4.93915,2.1729 5.61649,2.16478 10.6613,3.31896 17.85734,3.66305 2.42216,0.22487 16.58936,0.91847 24.99378,0.92389 7.04431,0.005 27.9876,-0.15715 53.86734,-0.13547 25.87973,-0.0217 46.82573,0.14089 53.86734,0.13547 8.40441,-0.005 22.57161,-0.69902 24.99378,-0.92389 7.19333,-0.34409 12.23814,-1.49827 17.85734,-3.66305 1.6825,-0.65024 3.3325,-1.3628 4.93915,-2.1729 1.5091,-0.71527 2.96403,-1.51182 4.39727,-2.35984 0.0623,-0.0379 0.12734,-0.0704 0.18966,-0.10838 9.927066,-5.92535 18.017192,-14.80119 22.95905,-25.62234 0.233005,-0.48768 0.430787,-0.99704 0.650245,-1.49285 0.330541,-0.77759 0.652954,-1.56601 0.950983,-2.36256 1.782754,-4.5788 2.977578,-9.40958 3.446296,-14.44085 0.910342,-12.46844 1.322164,-25.30535 1.192115,-29.50484 -0.21133,-6.92782 -0.157143,-27.51348 -0.135468,-52.81883 -0.02168,-25.305347 -0.07586,-45.891006 0.135468,-52.81882 0.130049,-4.196787 -0.284482,-17.033698 -1.192115,-29.504847 -0.468718,-5.031267 -1.663542,-9.862042 -3.446296,-14.440847 -0.298029,-0.793841 -0.620442,-1.582262 -0.950983,-2.359846 -0.219458,-0.495812 -0.41724,-1.00517 -0.650245,-1.492853 -4.941858,-10.8211535 -13.031984,-19.6969916 -22.95905,-25.6223451 -0.0623,-0.037931 -0.12734,-0.070443 -0.18966,-0.1083741 -1.43324,-0.8480268 -2.88817,-1.6445768 -4.39727,-2.3625548 -1.60665,-0.807387 -3.25394,-1.522656 -4.93915,-2.170192 -5.61649,-2.164772 -10.66401,-3.318956 -17.85734,-3.663044 -2.42217,-0.224876 -16.58937,-0.91847 -24.99378,-0.923889 -7.04432,-0.0054 -27.98761,0.157142 -53.86734,0.135468 -25.87974,0.02167 -46.82574,-0.140887 -53.86734,-0.135468"
         style="fill:#ffffff;fill-opacity:1;stroke-width:0.270935"
         id="path81"
         clip-path="url(#clipPath58)"
         transform="translate(351.03196,18.660455)" /></mask><mask
       maskUnits="userSpaceOnUse"
       id="mask82"><path
         d="m -269.4327,-18.660322 c -8.40442,0.0054 -22.57162,0.699013 -24.99378,0.923889 -7.19333,0.344088 -12.24085,1.500981 -17.85734,3.663044 -1.68522,0.647536 -3.3325,1.362805 -4.93915,2.170192 -1.50911,0.715269 -2.96403,1.514528 -4.39728,2.3625548 -0.0623,0.037931 -0.12734,0.070443 -0.18965,0.1083741 -9.92707,5.9253535 -18.0172,14.8011916 -22.95905,25.6223451 -0.23572,0.487683 -0.43079,0.997041 -0.65025,1.492853 -0.33054,0.777584 -0.65295,1.566005 -0.94827,2.359846 -1.78547,4.578805 -2.97758,9.40958 -3.4463,14.440847 -0.91034,12.46844 -1.32216,25.30806 -1.19482,29.504847 0.21404,6.927814 0.15714,27.513473 0.13546,52.81882 0.0217,25.30535 0.0786,45.89101 -0.13546,52.81883 -0.13005,4.19678 0.28448,17.03369 1.19482,29.50484 0.46872,5.03127 1.66083,9.86205 3.4463,14.44085 0.29803,0.79655 0.62044,1.58226 0.94827,2.36256 0.21946,0.49581 0.41724,1.00517 0.65025,1.49285 4.93914,10.82115 13.03198,19.69699 22.95905,25.62234 0.0623,0.0379 0.12734,0.0704 0.18965,0.10838 1.43325,0.84802 2.88817,1.64457 4.39728,2.35984 1.60665,0.8101 3.25393,1.52266 4.93915,2.1729 5.61649,2.16478 10.6613,3.31896 17.85734,3.66305 2.42216,0.22487 16.58936,0.91847 24.99378,0.92389 7.04431,0.005 27.9876,-0.15715 53.86734,-0.13547 25.87973,-0.0217 46.82573,0.14089 53.86734,0.13547 8.40441,-0.005 22.57161,-0.69902 24.99378,-0.92389 7.19333,-0.34409 12.23814,-1.49827 17.85734,-3.66305 1.6825,-0.65024 3.3325,-1.3628 4.93915,-2.1729 1.5091,-0.71527 2.96403,-1.51182 4.39727,-2.35984 0.0623,-0.0379 0.12734,-0.0704 0.18966,-0.10838 9.927066,-5.92535 18.017192,-14.80119 22.95905,-25.62234 0.233005,-0.48768 0.430787,-0.99704 0.650245,-1.49285 0.330541,-0.77759 0.652954,-1.56601 0.950983,-2.36256 1.782754,-4.5788 2.977578,-9.40958 3.446296,-14.44085 0.910342,-12.46844 1.322164,-25.30535 1.192115,-29.50484 -0.21133,-6.92782 -0.157143,-27.51348 -0.135468,-52.81883 -0.02168,-25.305347 -0.07586,-45.891006 0.135468,-52.81882 0.130049,-4.196787 -0.284482,-17.033698 -1.192115,-29.504847 -0.468718,-5.031267 -1.663542,-9.862042 -3.446296,-14.440847 -0.298029,-0.793841 -0.620442,-1.582262 -0.950983,-2.359846 -0.219458,-0.495812 -0.41724,-1.00517 -0.650245,-1.492853 -4.941858,-10.8211535 -13.031984,-19.6969916 -22.95905,-25.6223451 -0.0623,-0.037931 -0.12734,-0.070443 -0.18966,-0.1083741 -1.43324,-0.8480268 -2.88817,-1.6445768 -4.39727,-2.3625548 -1.60665,-0.807387 -3.25394,-1.522656 -4.93915,-2.170192 -5.61649,-2.164772 -10.66401,-3.318956 -17.85734,-3.663044 -2.42217,-0.224876 -16.58937,-0.91847 -24.99378,-0.923889 -7.04432,-0.0054 -27.98761,0.157142 -53.86734,0.135468 -25.87974,0.02167 -46.82574,-0.140887 -53.86734,-0.135468"
         style="fill:#ffffff;fill-opacity:1;stroke-width:0.270935"
         id="path82"
         clip-path="url(#clipPath58)"
         transform="translate(351.03196,18.660455)" /></mask><mask
       maskUnits="userSpaceOnUse"
       id="mask83"><path
         d="m -269.4327,-18.660322 c -8.40442,0.0054 -22.57162,0.699013 -24.99378,0.923889 -7.19333,0.344088 -12.24085,1.500981 -17.85734,3.663044 -1.68522,0.647536 -3.3325,1.362805 -4.93915,2.170192 -1.50911,0.715269 -2.96403,1.514528 -4.39728,2.3625548 -0.0623,0.037931 -0.12734,0.070443 -0.18965,0.1083741 -9.92707,5.9253535 -18.0172,14.8011916 -22.95905,25.6223451 -0.23572,0.487683 -0.43079,0.997041 -0.65025,1.492853 -0.33054,0.777584 -0.65295,1.566005 -0.94827,2.359846 -1.78547,4.578805 -2.97758,9.40958 -3.4463,14.440847 -0.91034,12.46844 -1.32216,25.30806 -1.19482,29.504847 0.21404,6.927814 0.15714,27.513473 0.13546,52.81882 0.0217,25.30535 0.0786,45.89101 -0.13546,52.81883 -0.13005,4.19678 0.28448,17.03369 1.19482,29.50484 0.46872,5.03127 1.66083,9.86205 3.4463,14.44085 0.29803,0.79655 0.62044,1.58226 0.94827,2.36256 0.21946,0.49581 0.41724,1.00517 0.65025,1.49285 4.93914,10.82115 13.03198,19.69699 22.95905,25.62234 0.0623,0.0379 0.12734,0.0704 0.18965,0.10838 1.43325,0.84802 2.88817,1.64457 4.39728,2.35984 1.60665,0.8101 3.25393,1.52266 4.93915,2.1729 5.61649,2.16478 10.6613,3.31896 17.85734,3.66305 2.42216,0.22487 16.58936,0.91847 24.99378,0.92389 7.04431,0.005 27.9876,-0.15715 53.86734,-0.13547 25.87973,-0.0217 46.82573,0.14089 53.86734,0.13547 8.40441,-0.005 22.57161,-0.69902 24.99378,-0.92389 7.19333,-0.34409 12.23814,-1.49827 17.85734,-3.66305 1.6825,-0.65024 3.3325,-1.3628 4.93915,-2.1729 1.5091,-0.71527 2.96403,-1.51182 4.39727,-2.35984 0.0623,-0.0379 0.12734,-0.0704 0.18966,-0.10838 9.927066,-5.92535 18.017192,-14.80119 22.95905,-25.62234 0.233005,-0.48768 0.430787,-0.99704 0.650245,-1.49285 0.330541,-0.77759 0.652954,-1.56601 0.950983,-2.36256 1.782754,-4.5788 2.977578,-9.40958 3.446296,-14.44085 0.910342,-12.46844 1.322164,-25.30535 1.192115,-29.50484 -0.21133,-6.92782 -0.157143,-27.51348 -0.135468,-52.81883 -0.02168,-25.305347 -0.07586,-45.891006 0.135468,-52.81882 0.130049,-4.196787 -0.284482,-17.033698 -1.192115,-29.504847 -0.468718,-5.031267 -1.663542,-9.862042 -3.446296,-14.440847 -0.298029,-0.793841 -0.620442,-1.582262 -0.950983,-2.359846 -0.219458,-0.495812 -0.41724,-1.00517 -0.650245,-1.492853 -4.941858,-10.8211535 -13.031984,-19.6969916 -22.95905,-25.6223451 -0.0623,-0.037931 -0.12734,-0.070443 -0.18966,-0.1083741 -1.43324,-0.8480268 -2.88817,-1.6445768 -4.39727,-2.3625548 -1.60665,-0.807387 -3.25394,-1.522656 -4.93915,-2.170192 -5.61649,-2.164772 -10.66401,-3.318956 -17.85734,-3.663044 -2.42217,-0.224876 -16.58937,-0.91847 -24.99378,-0.923889 -7.04432,-0.0054 -27.98761,0.157142 -53.86734,0.135468 -25.87974,0.02167 -46.82574,-0.140887 -53.86734,-0.135468"
         style="fill:#ffffff;fill-opacity:1;stroke-width:0.270935"
         id="path83"
         clip-path="url(#clipPath58)"
         transform="translate(351.03196,18.660455)" /></mask><mask
       maskUnits="userSpaceOnUse"
       id="mask84"><path
         d="m -269.4327,-18.660322 c -8.40442,0.0054 -22.57162,0.699013 -24.99378,0.923889 -7.19333,0.344088 -12.24085,1.500981 -17.85734,3.663044 -1.68522,0.647536 -3.3325,1.362805 -4.93915,2.170192 -1.50911,0.715269 -2.96403,1.514528 -4.39728,2.3625548 -0.0623,0.037931 -0.12734,0.070443 -0.18965,0.1083741 -9.92707,5.9253535 -18.0172,14.8011916 -22.95905,25.6223451 -0.23572,0.487683 -0.43079,0.997041 -0.65025,1.492853 -0.33054,0.777584 -0.65295,1.566005 -0.94827,2.359846 -1.78547,4.578805 -2.97758,9.40958 -3.4463,14.440847 -0.91034,12.46844 -1.32216,25.30806 -1.19482,29.504847 0.21404,6.927814 0.15714,27.513473 0.13546,52.81882 0.0217,25.30535 0.0786,45.89101 -0.13546,52.81883 -0.13005,4.19678 0.28448,17.03369 1.19482,29.50484 0.46872,5.03127 1.66083,9.86205 3.4463,14.44085 0.29803,0.79655 0.62044,1.58226 0.94827,2.36256 0.21946,0.49581 0.41724,1.00517 0.65025,1.49285 4.93914,10.82115 13.03198,19.69699 22.95905,25.62234 0.0623,0.0379 0.12734,0.0704 0.18965,0.10838 1.43325,0.84802 2.88817,1.64457 4.39728,2.35984 1.60665,0.8101 3.25393,1.52266 4.93915,2.1729 5.61649,2.16478 10.6613,3.31896 17.85734,3.66305 2.42216,0.22487 16.58936,0.91847 24.99378,0.92389 7.04431,0.005 27.9876,-0.15715 53.86734,-0.13547 25.87973,-0.0217 46.82573,0.14089 53.86734,0.13547 8.40441,-0.005 22.57161,-0.69902 24.99378,-0.92389 7.19333,-0.34409 12.23814,-1.49827 17.85734,-3.66305 1.6825,-0.65024 3.3325,-1.3628 4.93915,-2.1729 1.5091,-0.71527 2.96403,-1.51182 4.39727,-2.35984 0.0623,-0.0379 0.12734,-0.0704 0.18966,-0.10838 9.927066,-5.92535 18.017192,-14.80119 22.95905,-25.62234 0.233005,-0.48768 0.430787,-0.99704 0.650245,-1.49285 0.330541,-0.77759 0.652954,-1.56601 0.950983,-2.36256 1.782754,-4.5788 2.977578,-9.40958 3.446296,-14.44085 0.910342,-12.46844 1.322164,-25.30535 1.192115,-29.50484 -0.21133,-6.92782 -0.157143,-27.51348 -0.135468,-52.81883 -0.02168,-25.305347 -0.07586,-45.891006 0.135468,-52.81882 0.130049,-4.196787 -0.284482,-17.033698 -1.192115,-29.504847 -0.468718,-5.031267 -1.663542,-9.862042 -3.446296,-14.440847 -0.298029,-0.793841 -0.620442,-1.582262 -0.950983,-2.359846 -0.219458,-0.495812 -0.41724,-1.00517 -0.650245,-1.492853 -4.941858,-10.8211535 -13.031984,-19.6969916 -22.95905,-25.6223451 -0.0623,-0.037931 -0.12734,-0.070443 -0.18966,-0.1083741 -1.43324,-0.8480268 -2.88817,-1.6445768 -4.39727,-2.3625548 -1.60665,-0.807387 -3.25394,-1.522656 -4.93915,-2.170192 -5.61649,-2.164772 -10.66401,-3.318956 -17.85734,-3.663044 -2.42217,-0.224876 -16.58937,-0.91847 -24.99378,-0.923889 -7.04432,-0.0054 -27.98761,0.157142 -53.86734,0.135468 -25.87974,0.02167 -46.82574,-0.140887 -53.86734,-0.135468"
         style="fill:#ffffff;fill-opacity:1;stroke-width:0.270935"
         id="path84"
         clip-path="url(#clipPath58)"
         transform="translate(351.03196,18.660455)" /></mask><mask
       maskUnits="userSpaceOnUse"
       id="mask85"><path
         d="m -269.4327,-18.660322 c -8.40442,0.0054 -22.57162,0.699013 -24.99378,0.923889 -7.19333,0.344088 -12.24085,1.500981 -17.85734,3.663044 -1.68522,0.647536 -3.3325,1.362805 -4.93915,2.170192 -1.50911,0.715269 -2.96403,1.514528 -4.39728,2.3625548 -0.0623,0.037931 -0.12734,0.070443 -0.18965,0.1083741 -9.92707,5.9253535 -18.0172,14.8011916 -22.95905,25.6223451 -0.23572,0.487683 -0.43079,0.997041 -0.65025,1.492853 -0.33054,0.777584 -0.65295,1.566005 -0.94827,2.359846 -1.78547,4.578805 -2.97758,9.40958 -3.4463,14.440847 -0.91034,12.46844 -1.32216,25.30806 -1.19482,29.504847 0.21404,6.927814 0.15714,27.513473 0.13546,52.81882 0.0217,25.30535 0.0786,45.89101 -0.13546,52.81883 -0.13005,4.19678 0.28448,17.03369 1.19482,29.50484 0.46872,5.03127 1.66083,9.86205 3.4463,14.44085 0.29803,0.79655 0.62044,1.58226 0.94827,2.36256 0.21946,0.49581 0.41724,1.00517 0.65025,1.49285 4.93914,10.82115 13.03198,19.69699 22.95905,25.62234 0.0623,0.0379 0.12734,0.0704 0.18965,0.10838 1.43325,0.84802 2.88817,1.64457 4.39728,2.35984 1.60665,0.8101 3.25393,1.52266 4.93915,2.1729 5.61649,2.16478 10.6613,3.31896 17.85734,3.66305 2.42216,0.22487 16.58936,0.91847 24.99378,0.92389 7.04431,0.005 27.9876,-0.15715 53.86734,-0.13547 25.87973,-0.0217 46.82573,0.14089 53.86734,0.13547 8.40441,-0.005 22.57161,-0.69902 24.99378,-0.92389 7.19333,-0.34409 12.23814,-1.49827 17.85734,-3.66305 1.6825,-0.65024 3.3325,-1.3628 4.93915,-2.1729 1.5091,-0.71527 2.96403,-1.51182 4.39727,-2.35984 0.0623,-0.0379 0.12734,-0.0704 0.18966,-0.10838 9.927066,-5.92535 18.017192,-14.80119 22.95905,-25.62234 0.233005,-0.48768 0.430787,-0.99704 0.650245,-1.49285 0.330541,-0.77759 0.652954,-1.56601 0.950983,-2.36256 1.782754,-4.5788 2.977578,-9.40958 3.446296,-14.44085 0.910342,-12.46844 1.322164,-25.30535 1.192115,-29.50484 -0.21133,-6.92782 -0.157143,-27.51348 -0.135468,-52.81883 -0.02168,-25.305347 -0.07586,-45.891006 0.135468,-52.81882 0.130049,-4.196787 -0.284482,-17.033698 -1.192115,-29.504847 -0.468718,-5.031267 -1.663542,-9.862042 -3.446296,-14.440847 -0.298029,-0.793841 -0.620442,-1.582262 -0.950983,-2.359846 -0.219458,-0.495812 -0.41724,-1.00517 -0.650245,-1.492853 -4.941858,-10.8211535 -13.031984,-19.6969916 -22.95905,-25.6223451 -0.0623,-0.037931 -0.12734,-0.070443 -0.18966,-0.1083741 -1.43324,-0.8480268 -2.88817,-1.6445768 -4.39727,-2.3625548 -1.60665,-0.807387 -3.25394,-1.522656 -4.93915,-2.170192 -5.61649,-2.164772 -10.66401,-3.318956 -17.85734,-3.663044 -2.42217,-0.224876 -16.58937,-0.91847 -24.99378,-0.923889 -7.04432,-0.0054 -27.98761,0.157142 -53.86734,0.135468 -25.87974,0.02167 -46.82574,-0.140887 -53.86734,-0.135468"
         style="fill:#ffffff;fill-opacity:1;stroke-width:0.270935"
         id="path85"
         clip-path="url(#clipPath58)"
         transform="translate(351.03196,18.660455)" /></mask><mask
       maskUnits="userSpaceOnUse"
       id="mask86"><path
         d="m -269.4327,-18.660322 c -8.40442,0.0054 -22.57162,0.699013 -24.99378,0.923889 -7.19333,0.344088 -12.24085,1.500981 -17.85734,3.663044 -1.68522,0.647536 -3.3325,1.362805 -4.93915,2.170192 -1.50911,0.715269 -2.96403,1.514528 -4.39728,2.3625548 -0.0623,0.037931 -0.12734,0.070443 -0.18965,0.1083741 -9.92707,5.9253535 -18.0172,14.8011916 -22.95905,25.6223451 -0.23572,0.487683 -0.43079,0.997041 -0.65025,1.492853 -0.33054,0.777584 -0.65295,1.566005 -0.94827,2.359846 -1.78547,4.578805 -2.97758,9.40958 -3.4463,14.440847 -0.91034,12.46844 -1.32216,25.30806 -1.19482,29.504847 0.21404,6.927814 0.15714,27.513473 0.13546,52.81882 0.0217,25.30535 0.0786,45.89101 -0.13546,52.81883 -0.13005,4.19678 0.28448,17.03369 1.19482,29.50484 0.46872,5.03127 1.66083,9.86205 3.4463,14.44085 0.29803,0.79655 0.62044,1.58226 0.94827,2.36256 0.21946,0.49581 0.41724,1.00517 0.65025,1.49285 4.93914,10.82115 13.03198,19.69699 22.95905,25.62234 0.0623,0.0379 0.12734,0.0704 0.18965,0.10838 1.43325,0.84802 2.88817,1.64457 4.39728,2.35984 1.60665,0.8101 3.25393,1.52266 4.93915,2.1729 5.61649,2.16478 10.6613,3.31896 17.85734,3.66305 2.42216,0.22487 16.58936,0.91847 24.99378,0.92389 7.04431,0.005 27.9876,-0.15715 53.86734,-0.13547 25.87973,-0.0217 46.82573,0.14089 53.86734,0.13547 8.40441,-0.005 22.57161,-0.69902 24.99378,-0.92389 7.19333,-0.34409 12.23814,-1.49827 17.85734,-3.66305 1.6825,-0.65024 3.3325,-1.3628 4.93915,-2.1729 1.5091,-0.71527 2.96403,-1.51182 4.39727,-2.35984 0.0623,-0.0379 0.12734,-0.0704 0.18966,-0.10838 9.927066,-5.92535 18.017192,-14.80119 22.95905,-25.62234 0.233005,-0.48768 0.430787,-0.99704 0.650245,-1.49285 0.330541,-0.77759 0.652954,-1.56601 0.950983,-2.36256 1.782754,-4.5788 2.977578,-9.40958 3.446296,-14.44085 0.910342,-12.46844 1.322164,-25.30535 1.192115,-29.50484 -0.21133,-6.92782 -0.157143,-27.51348 -0.135468,-52.81883 -0.02168,-25.305347 -0.07586,-45.891006 0.135468,-52.81882 0.130049,-4.196787 -0.284482,-17.033698 -1.192115,-29.504847 -0.468718,-5.031267 -1.663542,-9.862042 -3.446296,-14.440847 -0.298029,-0.793841 -0.620442,-1.582262 -0.950983,-2.359846 -0.219458,-0.495812 -0.41724,-1.00517 -0.650245,-1.492853 -4.941858,-10.8211535 -13.031984,-19.6969916 -22.95905,-25.6223451 -0.0623,-0.037931 -0.12734,-0.070443 -0.18966,-0.1083741 -1.43324,-0.8480268 -2.88817,-1.6445768 -4.39727,-2.3625548 -1.60665,-0.807387 -3.25394,-1.522656 -4.93915,-2.170192 -5.61649,-2.164772 -10.66401,-3.318956 -17.85734,-3.663044 -2.42217,-0.224876 -16.58937,-0.91847 -24.99378,-0.923889 -7.04432,-0.0054 -27.98761,0.157142 -53.86734,0.135468 -25.87974,0.02167 -46.82574,-0.140887 -53.86734,-0.135468"
         style="fill:#ffffff;fill-opacity:1;stroke-width:0.270935"
         id="path86"
         clip-path="url(#clipPath58)"
         transform="translate(351.03196,18.660455)" /></mask><mask
       maskUnits="userSpaceOnUse"
       id="mask87"><path
         d="m -269.4327,-18.660322 c -8.40442,0.0054 -22.57162,0.699013 -24.99378,0.923889 -7.19333,0.344088 -12.24085,1.500981 -17.85734,3.663044 -1.68522,0.647536 -3.3325,1.362805 -4.93915,2.170192 -1.50911,0.715269 -2.96403,1.514528 -4.39728,2.3625548 -0.0623,0.037931 -0.12734,0.070443 -0.18965,0.1083741 -9.92707,5.9253535 -18.0172,14.8011916 -22.95905,25.6223451 -0.23572,0.487683 -0.43079,0.997041 -0.65025,1.492853 -0.33054,0.777584 -0.65295,1.566005 -0.94827,2.359846 -1.78547,4.578805 -2.97758,9.40958 -3.4463,14.440847 -0.91034,12.46844 -1.32216,25.30806 -1.19482,29.504847 0.21404,6.927814 0.15714,27.513473 0.13546,52.81882 0.0217,25.30535 0.0786,45.89101 -0.13546,52.81883 -0.13005,4.19678 0.28448,17.03369 1.19482,29.50484 0.46872,5.03127 1.66083,9.86205 3.4463,14.44085 0.29803,0.79655 0.62044,1.58226 0.94827,2.36256 0.21946,0.49581 0.41724,1.00517 0.65025,1.49285 4.93914,10.82115 13.03198,19.69699 22.95905,25.62234 0.0623,0.0379 0.12734,0.0704 0.18965,0.10838 1.43325,0.84802 2.88817,1.64457 4.39728,2.35984 1.60665,0.8101 3.25393,1.52266 4.93915,2.1729 5.61649,2.16478 10.6613,3.31896 17.85734,3.66305 2.42216,0.22487 16.58936,0.91847 24.99378,0.92389 7.04431,0.005 27.9876,-0.15715 53.86734,-0.13547 25.87973,-0.0217 46.82573,0.14089 53.86734,0.13547 8.40441,-0.005 22.57161,-0.69902 24.99378,-0.92389 7.19333,-0.34409 12.23814,-1.49827 17.85734,-3.66305 1.6825,-0.65024 3.3325,-1.3628 4.93915,-2.1729 1.5091,-0.71527 2.96403,-1.51182 4.39727,-2.35984 0.0623,-0.0379 0.12734,-0.0704 0.18966,-0.10838 9.927066,-5.92535 18.017192,-14.80119 22.95905,-25.62234 0.233005,-0.48768 0.430787,-0.99704 0.650245,-1.49285 0.330541,-0.77759 0.652954,-1.56601 0.950983,-2.36256 1.782754,-4.5788 2.977578,-9.40958 3.446296,-14.44085 0.910342,-12.46844 1.322164,-25.30535 1.192115,-29.50484 -0.21133,-6.92782 -0.157143,-27.51348 -0.135468,-52.81883 -0.02168,-25.305347 -0.07586,-45.891006 0.135468,-52.81882 0.130049,-4.196787 -0.284482,-17.033698 -1.192115,-29.504847 -0.468718,-5.031267 -1.663542,-9.862042 -3.446296,-14.440847 -0.298029,-0.793841 -0.620442,-1.582262 -0.950983,-2.359846 -0.219458,-0.495812 -0.41724,-1.00517 -0.650245,-1.492853 -4.941858,-10.8211535 -13.031984,-19.6969916 -22.95905,-25.6223451 -0.0623,-0.037931 -0.12734,-0.070443 -0.18966,-0.1083741 -1.43324,-0.8480268 -2.88817,-1.6445768 -4.39727,-2.3625548 -1.60665,-0.807387 -3.25394,-1.522656 -4.93915,-2.170192 -5.61649,-2.164772 -10.66401,-3.318956 -17.85734,-3.663044 -2.42217,-0.224876 -16.58937,-0.91847 -24.99378,-0.923889 -7.04432,-0.0054 -27.98761,0.157142 -53.86734,0.135468 -25.87974,0.02167 -46.82574,-0.140887 -53.86734,-0.135468"
         style="fill:#ffffff;fill-opacity:1;stroke-width:0.270935"
         id="path87"
         clip-path="url(#clipPath58)"
         transform="translate(351.03196,18.660455)" /></mask><mask
       maskUnits="userSpaceOnUse"
       id="mask88"><path
         d="m -269.4327,-18.660322 c -8.40442,0.0054 -22.57162,0.699013 -24.99378,0.923889 -7.19333,0.344088 -12.24085,1.500981 -17.85734,3.663044 -1.68522,0.647536 -3.3325,1.362805 -4.93915,2.170192 -1.50911,0.715269 -2.96403,1.514528 -4.39728,2.3625548 -0.0623,0.037931 -0.12734,0.070443 -0.18965,0.1083741 -9.92707,5.9253535 -18.0172,14.8011916 -22.95905,25.6223451 -0.23572,0.487683 -0.43079,0.997041 -0.65025,1.492853 -0.33054,0.777584 -0.65295,1.566005 -0.94827,2.359846 -1.78547,4.578805 -2.97758,9.40958 -3.4463,14.440847 -0.91034,12.46844 -1.32216,25.30806 -1.19482,29.504847 0.21404,6.927814 0.15714,27.513473 0.13546,52.81882 0.0217,25.30535 0.0786,45.89101 -0.13546,52.81883 -0.13005,4.19678 0.28448,17.03369 1.19482,29.50484 0.46872,5.03127 1.66083,9.86205 3.4463,14.44085 0.29803,0.79655 0.62044,1.58226 0.94827,2.36256 0.21946,0.49581 0.41724,1.00517 0.65025,1.49285 4.93914,10.82115 13.03198,19.69699 22.95905,25.62234 0.0623,0.0379 0.12734,0.0704 0.18965,0.10838 1.43325,0.84802 2.88817,1.64457 4.39728,2.35984 1.60665,0.8101 3.25393,1.52266 4.93915,2.1729 5.61649,2.16478 10.6613,3.31896 17.85734,3.66305 2.42216,0.22487 16.58936,0.91847 24.99378,0.92389 7.04431,0.005 27.9876,-0.15715 53.86734,-0.13547 25.87973,-0.0217 46.82573,0.14089 53.86734,0.13547 8.40441,-0.005 22.57161,-0.69902 24.99378,-0.92389 7.19333,-0.34409 12.23814,-1.49827 17.85734,-3.66305 1.6825,-0.65024 3.3325,-1.3628 4.93915,-2.1729 1.5091,-0.71527 2.96403,-1.51182 4.39727,-2.35984 0.0623,-0.0379 0.12734,-0.0704 0.18966,-0.10838 9.927066,-5.92535 18.017192,-14.80119 22.95905,-25.62234 0.233005,-0.48768 0.430787,-0.99704 0.650245,-1.49285 0.330541,-0.77759 0.652954,-1.56601 0.950983,-2.36256 1.782754,-4.5788 2.977578,-9.40958 3.446296,-14.44085 0.910342,-12.46844 1.322164,-25.30535 1.192115,-29.50484 -0.21133,-6.92782 -0.157143,-27.51348 -0.135468,-52.81883 -0.02168,-25.305347 -0.07586,-45.891006 0.135468,-52.81882 0.130049,-4.196787 -0.284482,-17.033698 -1.192115,-29.504847 -0.468718,-5.031267 -1.663542,-9.862042 -3.446296,-14.440847 -0.298029,-0.793841 -0.620442,-1.582262 -0.950983,-2.359846 -0.219458,-0.495812 -0.41724,-1.00517 -0.650245,-1.492853 -4.941858,-10.8211535 -13.031984,-19.6969916 -22.95905,-25.6223451 -0.0623,-0.037931 -0.12734,-0.070443 -0.18966,-0.1083741 -1.43324,-0.8480268 -2.88817,-1.6445768 -4.39727,-2.3625548 -1.60665,-0.807387 -3.25394,-1.522656 -4.93915,-2.170192 -5.61649,-2.164772 -10.66401,-3.318956 -17.85734,-3.663044 -2.42217,-0.224876 -16.58937,-0.91847 -24.99378,-0.923889 -7.04432,-0.0054 -27.98761,0.157142 -53.86734,0.135468 -25.87974,0.02167 -46.82574,-0.140887 -53.86734,-0.135468"
         style="fill:#ffffff;fill-opacity:1;stroke-width:0.270935"
         id="path88"
         clip-path="url(#clipPath58)"
         transform="translate(351.03196,18.660455)" /></mask><mask
       maskUnits="userSpaceOnUse"
       id="mask89"><path
         d="m -269.4327,-18.660322 c -8.40442,0.0054 -22.57162,0.699013 -24.99378,0.923889 -7.19333,0.344088 -12.24085,1.500981 -17.85734,3.663044 -1.68522,0.647536 -3.3325,1.362805 -4.93915,2.170192 -1.50911,0.715269 -2.96403,1.514528 -4.39728,2.3625548 -0.0623,0.037931 -0.12734,0.070443 -0.18965,0.1083741 -9.92707,5.9253535 -18.0172,14.8011916 -22.95905,25.6223451 -0.23572,0.487683 -0.43079,0.997041 -0.65025,1.492853 -0.33054,0.777584 -0.65295,1.566005 -0.94827,2.359846 -1.78547,4.578805 -2.97758,9.40958 -3.4463,14.440847 -0.91034,12.46844 -1.32216,25.30806 -1.19482,29.504847 0.21404,6.927814 0.15714,27.513473 0.13546,52.81882 0.0217,25.30535 0.0786,45.89101 -0.13546,52.81883 -0.13005,4.19678 0.28448,17.03369 1.19482,29.50484 0.46872,5.03127 1.66083,9.86205 3.4463,14.44085 0.29803,0.79655 0.62044,1.58226 0.94827,2.36256 0.21946,0.49581 0.41724,1.00517 0.65025,1.49285 4.93914,10.82115 13.03198,19.69699 22.95905,25.62234 0.0623,0.0379 0.12734,0.0704 0.18965,0.10838 1.43325,0.84802 2.88817,1.64457 4.39728,2.35984 1.60665,0.8101 3.25393,1.52266 4.93915,2.1729 5.61649,2.16478 10.6613,3.31896 17.85734,3.66305 2.42216,0.22487 16.58936,0.91847 24.99378,0.92389 7.04431,0.005 27.9876,-0.15715 53.86734,-0.13547 25.87973,-0.0217 46.82573,0.14089 53.86734,0.13547 8.40441,-0.005 22.57161,-0.69902 24.99378,-0.92389 7.19333,-0.34409 12.23814,-1.49827 17.85734,-3.66305 1.6825,-0.65024 3.3325,-1.3628 4.93915,-2.1729 1.5091,-0.71527 2.96403,-1.51182 4.39727,-2.35984 0.0623,-0.0379 0.12734,-0.0704 0.18966,-0.10838 9.927066,-5.92535 18.017192,-14.80119 22.95905,-25.62234 0.233005,-0.48768 0.430787,-0.99704 0.650245,-1.49285 0.330541,-0.77759 0.652954,-1.56601 0.950983,-2.36256 1.782754,-4.5788 2.977578,-9.40958 3.446296,-14.44085 0.910342,-12.46844 1.322164,-25.30535 1.192115,-29.50484 -0.21133,-6.92782 -0.157143,-27.51348 -0.135468,-52.81883 -0.02168,-25.305347 -0.07586,-45.891006 0.135468,-52.81882 0.130049,-4.196787 -0.284482,-17.033698 -1.192115,-29.504847 -0.468718,-5.031267 -1.663542,-9.862042 -3.446296,-14.440847 -0.298029,-0.793841 -0.620442,-1.582262 -0.950983,-2.359846 -0.219458,-0.495812 -0.41724,-1.00517 -0.650245,-1.492853 -4.941858,-10.8211535 -13.031984,-19.6969916 -22.95905,-25.6223451 -0.0623,-0.037931 -0.12734,-0.070443 -0.18966,-0.1083741 -1.43324,-0.8480268 -2.88817,-1.6445768 -4.39727,-2.3625548 -1.60665,-0.807387 -3.25394,-1.522656 -4.93915,-2.170192 -5.61649,-2.164772 -10.66401,-3.318956 -17.85734,-3.663044 -2.42217,-0.224876 -16.58937,-0.91847 -24.99378,-0.923889 -7.04432,-0.0054 -27.98761,0.157142 -53.86734,0.135468 -25.87974,0.02167 -46.82574,-0.140887 -53.86734,-0.135468"
         style="fill:#ffffff;fill-opacity:1;stroke-width:0.270935"
         id="path89"
         clip-path="url(#clipPath58)"
         transform="translate(351.03196,18.660455)" /></mask><mask
       maskUnits="userSpaceOnUse"
       id="mask90"><path
         d="m -269.4327,-18.660322 c -8.40442,0.0054 -22.57162,0.699013 -24.99378,0.923889 -7.19333,0.344088 -12.24085,1.500981 -17.85734,3.663044 -1.68522,0.647536 -3.3325,1.362805 -4.93915,2.170192 -1.50911,0.715269 -2.96403,1.514528 -4.39728,2.3625548 -0.0623,0.037931 -0.12734,0.070443 -0.18965,0.1083741 -9.92707,5.9253535 -18.0172,14.8011916 -22.95905,25.6223451 -0.23572,0.487683 -0.43079,0.997041 -0.65025,1.492853 -0.33054,0.777584 -0.65295,1.566005 -0.94827,2.359846 -1.78547,4.578805 -2.97758,9.40958 -3.4463,14.440847 -0.91034,12.46844 -1.32216,25.30806 -1.19482,29.504847 0.21404,6.927814 0.15714,27.513473 0.13546,52.81882 0.0217,25.30535 0.0786,45.89101 -0.13546,52.81883 -0.13005,4.19678 0.28448,17.03369 1.19482,29.50484 0.46872,5.03127 1.66083,9.86205 3.4463,14.44085 0.29803,0.79655 0.62044,1.58226 0.94827,2.36256 0.21946,0.49581 0.41724,1.00517 0.65025,1.49285 4.93914,10.82115 13.03198,19.69699 22.95905,25.62234 0.0623,0.0379 0.12734,0.0704 0.18965,0.10838 1.43325,0.84802 2.88817,1.64457 4.39728,2.35984 1.60665,0.8101 3.25393,1.52266 4.93915,2.1729 5.61649,2.16478 10.6613,3.31896 17.85734,3.66305 2.42216,0.22487 16.58936,0.91847 24.99378,0.92389 7.04431,0.005 27.9876,-0.15715 53.86734,-0.13547 25.87973,-0.0217 46.82573,0.14089 53.86734,0.13547 8.40441,-0.005 22.57161,-0.69902 24.99378,-0.92389 7.19333,-0.34409 12.23814,-1.49827 17.85734,-3.66305 1.6825,-0.65024 3.3325,-1.3628 4.93915,-2.1729 1.5091,-0.71527 2.96403,-1.51182 4.39727,-2.35984 0.0623,-0.0379 0.12734,-0.0704 0.18966,-0.10838 9.927066,-5.92535 18.017192,-14.80119 22.95905,-25.62234 0.233005,-0.48768 0.430787,-0.99704 0.650245,-1.49285 0.330541,-0.77759 0.652954,-1.56601 0.950983,-2.36256 1.782754,-4.5788 2.977578,-9.40958 3.446296,-14.44085 0.910342,-12.46844 1.322164,-25.30535 1.192115,-29.50484 -0.21133,-6.92782 -0.157143,-27.51348 -0.135468,-52.81883 -0.02168,-25.305347 -0.07586,-45.891006 0.135468,-52.81882 0.130049,-4.196787 -0.284482,-17.033698 -1.192115,-29.504847 -0.468718,-5.031267 -1.663542,-9.862042 -3.446296,-14.440847 -0.298029,-0.793841 -0.620442,-1.582262 -0.950983,-2.359846 -0.219458,-0.495812 -0.41724,-1.00517 -0.650245,-1.492853 -4.941858,-10.8211535 -13.031984,-19.6969916 -22.95905,-25.6223451 -0.0623,-0.037931 -0.12734,-0.070443 -0.18966,-0.1083741 -1.43324,-0.8480268 -2.88817,-1.6445768 -4.39727,-2.3625548 -1.60665,-0.807387 -3.25394,-1.522656 -4.93915,-2.170192 -5.61649,-2.164772 -10.66401,-3.318956 -17.85734,-3.663044 -2.42217,-0.224876 -16.58937,-0.91847 -24.99378,-0.923889 -7.04432,-0.0054 -27.98761,0.157142 -53.86734,0.135468 -25.87974,0.02167 -46.82574,-0.140887 -53.86734,-0.135468"
         style="fill:#ffffff;fill-opacity:1;stroke-width:0.270935"
         id="path90"
         clip-path="url(#clipPath58)"
         transform="translate(351.03196,18.660455)" /></mask><mask
       maskUnits="userSpaceOnUse"
       id="mask91"><path
         d="m -269.4327,-18.660322 c -8.40442,0.0054 -22.57162,0.699013 -24.99378,0.923889 -7.19333,0.344088 -12.24085,1.500981 -17.85734,3.663044 -1.68522,0.647536 -3.3325,1.362805 -4.93915,2.170192 -1.50911,0.715269 -2.96403,1.514528 -4.39728,2.3625548 -0.0623,0.037931 -0.12734,0.070443 -0.18965,0.1083741 -9.92707,5.9253535 -18.0172,14.8011916 -22.95905,25.6223451 -0.23572,0.487683 -0.43079,0.997041 -0.65025,1.492853 -0.33054,0.777584 -0.65295,1.566005 -0.94827,2.359846 -1.78547,4.578805 -2.97758,9.40958 -3.4463,14.440847 -0.91034,12.46844 -1.32216,25.30806 -1.19482,29.504847 0.21404,6.927814 0.15714,27.513473 0.13546,52.81882 0.0217,25.30535 0.0786,45.89101 -0.13546,52.81883 -0.13005,4.19678 0.28448,17.03369 1.19482,29.50484 0.46872,5.03127 1.66083,9.86205 3.4463,14.44085 0.29803,0.79655 0.62044,1.58226 0.94827,2.36256 0.21946,0.49581 0.41724,1.00517 0.65025,1.49285 4.93914,10.82115 13.03198,19.69699 22.95905,25.62234 0.0623,0.0379 0.12734,0.0704 0.18965,0.10838 1.43325,0.84802 2.88817,1.64457 4.39728,2.35984 1.60665,0.8101 3.25393,1.52266 4.93915,2.1729 5.61649,2.16478 10.6613,3.31896 17.85734,3.66305 2.42216,0.22487 16.58936,0.91847 24.99378,0.92389 7.04431,0.005 27.9876,-0.15715 53.86734,-0.13547 25.87973,-0.0217 46.82573,0.14089 53.86734,0.13547 8.40441,-0.005 22.57161,-0.69902 24.99378,-0.92389 7.19333,-0.34409 12.23814,-1.49827 17.85734,-3.66305 1.6825,-0.65024 3.3325,-1.3628 4.93915,-2.1729 1.5091,-0.71527 2.96403,-1.51182 4.39727,-2.35984 0.0623,-0.0379 0.12734,-0.0704 0.18966,-0.10838 9.927066,-5.92535 18.017192,-14.80119 22.95905,-25.62234 0.233005,-0.48768 0.430787,-0.99704 0.650245,-1.49285 0.330541,-0.77759 0.652954,-1.56601 0.950983,-2.36256 1.782754,-4.5788 2.977578,-9.40958 3.446296,-14.44085 0.910342,-12.46844 1.322164,-25.30535 1.192115,-29.50484 -0.21133,-6.92782 -0.157143,-27.51348 -0.135468,-52.81883 -0.02168,-25.305347 -0.07586,-45.891006 0.135468,-52.81882 0.130049,-4.196787 -0.284482,-17.033698 -1.192115,-29.504847 -0.468718,-5.031267 -1.663542,-9.862042 -3.446296,-14.440847 -0.298029,-0.793841 -0.620442,-1.582262 -0.950983,-2.359846 -0.219458,-0.495812 -0.41724,-1.00517 -0.650245,-1.492853 -4.941858,-10.8211535 -13.031984,-19.6969916 -22.95905,-25.6223451 -0.0623,-0.037931 -0.12734,-0.070443 -0.18966,-0.1083741 -1.43324,-0.8480268 -2.88817,-1.6445768 -4.39727,-2.3625548 -1.60665,-0.807387 -3.25394,-1.522656 -4.93915,-2.170192 -5.61649,-2.164772 -10.66401,-3.318956 -17.85734,-3.663044 -2.42217,-0.224876 -16.58937,-0.91847 -24.99378,-0.923889 -7.04432,-0.0054 -27.98761,0.157142 -53.86734,0.135468 -25.87974,0.02167 -46.82574,-0.140887 -53.86734,-0.135468"
         style="fill:#ffffff;fill-opacity:1;stroke-width:0.270935"
         id="path91"
         clip-path="url(#clipPath58)"
         transform="translate(351.03196,18.660455)" /></mask><mask
       maskUnits="userSpaceOnUse"
       id="mask92"><path
         d="m -269.4327,-18.660322 c -8.40442,0.0054 -22.57162,0.699013 -24.99378,0.923889 -7.19333,0.344088 -12.24085,1.500981 -17.85734,3.663044 -1.68522,0.647536 -3.3325,1.362805 -4.93915,2.170192 -1.50911,0.715269 -2.96403,1.514528 -4.39728,2.3625548 -0.0623,0.037931 -0.12734,0.070443 -0.18965,0.1083741 -9.92707,5.9253535 -18.0172,14.8011916 -22.95905,25.6223451 -0.23572,0.487683 -0.43079,0.997041 -0.65025,1.492853 -0.33054,0.777584 -0.65295,1.566005 -0.94827,2.359846 -1.78547,4.578805 -2.97758,9.40958 -3.4463,14.440847 -0.91034,12.46844 -1.32216,25.30806 -1.19482,29.504847 0.21404,6.927814 0.15714,27.513473 0.13546,52.81882 0.0217,25.30535 0.0786,45.89101 -0.13546,52.81883 -0.13005,4.19678 0.28448,17.03369 1.19482,29.50484 0.46872,5.03127 1.66083,9.86205 3.4463,14.44085 0.29803,0.79655 0.62044,1.58226 0.94827,2.36256 0.21946,0.49581 0.41724,1.00517 0.65025,1.49285 4.93914,10.82115 13.03198,19.69699 22.95905,25.62234 0.0623,0.0379 0.12734,0.0704 0.18965,0.10838 1.43325,0.84802 2.88817,1.64457 4.39728,2.35984 1.60665,0.8101 3.25393,1.52266 4.93915,2.1729 5.61649,2.16478 10.6613,3.31896 17.85734,3.66305 2.42216,0.22487 16.58936,0.91847 24.99378,0.92389 7.04431,0.005 27.9876,-0.15715 53.86734,-0.13547 25.87973,-0.0217 46.82573,0.14089 53.86734,0.13547 8.40441,-0.005 22.57161,-0.69902 24.99378,-0.92389 7.19333,-0.34409 12.23814,-1.49827 17.85734,-3.66305 1.6825,-0.65024 3.3325,-1.3628 4.93915,-2.1729 1.5091,-0.71527 2.96403,-1.51182 4.39727,-2.35984 0.0623,-0.0379 0.12734,-0.0704 0.18966,-0.10838 9.927066,-5.92535 18.017192,-14.80119 22.95905,-25.62234 0.233005,-0.48768 0.430787,-0.99704 0.650245,-1.49285 0.330541,-0.77759 0.652954,-1.56601 0.950983,-2.36256 1.782754,-4.5788 2.977578,-9.40958 3.446296,-14.44085 0.910342,-12.46844 1.322164,-25.30535 1.192115,-29.50484 -0.21133,-6.92782 -0.157143,-27.51348 -0.135468,-52.81883 -0.02168,-25.305347 -0.07586,-45.891006 0.135468,-52.81882 0.130049,-4.196787 -0.284482,-17.033698 -1.192115,-29.504847 -0.468718,-5.031267 -1.663542,-9.862042 -3.446296,-14.440847 -0.298029,-0.793841 -0.620442,-1.582262 -0.950983,-2.359846 -0.219458,-0.495812 -0.41724,-1.00517 -0.650245,-1.492853 -4.941858,-10.8211535 -13.031984,-19.6969916 -22.95905,-25.6223451 -0.0623,-0.037931 -0.12734,-0.070443 -0.18966,-0.1083741 -1.43324,-0.8480268 -2.88817,-1.6445768 -4.39727,-2.3625548 -1.60665,-0.807387 -3.25394,-1.522656 -4.93915,-2.170192 -5.61649,-2.164772 -10.66401,-3.318956 -17.85734,-3.663044 -2.42217,-0.224876 -16.58937,-0.91847 -24.99378,-0.923889 -7.04432,-0.0054 -27.98761,0.157142 -53.86734,0.135468 -25.87974,0.02167 -46.82574,-0.140887 -53.86734,-0.135468"
         style="fill:#ffffff;fill-opacity:1;stroke-width:0.270935"
         id="path92"
         clip-path="url(#clipPath58)"
         transform="translate(351.03196,18.660455)" /></mask><mask
       maskUnits="userSpaceOnUse"
       id="mask93"><path
         d="m -269.4327,-18.660322 c -8.40442,0.0054 -22.57162,0.699013 -24.99378,0.923889 -7.19333,0.344088 -12.24085,1.500981 -17.85734,3.663044 -1.68522,0.647536 -3.3325,1.362805 -4.93915,2.170192 -1.50911,0.715269 -2.96403,1.514528 -4.39728,2.3625548 -0.0623,0.037931 -0.12734,0.070443 -0.18965,0.1083741 -9.92707,5.9253535 -18.0172,14.8011916 -22.95905,25.6223451 -0.23572,0.487683 -0.43079,0.997041 -0.65025,1.492853 -0.33054,0.777584 -0.65295,1.566005 -0.94827,2.359846 -1.78547,4.578805 -2.97758,9.40958 -3.4463,14.440847 -0.91034,12.46844 -1.32216,25.30806 -1.19482,29.504847 0.21404,6.927814 0.15714,27.513473 0.13546,52.81882 0.0217,25.30535 0.0786,45.89101 -0.13546,52.81883 -0.13005,4.19678 0.28448,17.03369 1.19482,29.50484 0.46872,5.03127 1.66083,9.86205 3.4463,14.44085 0.29803,0.79655 0.62044,1.58226 0.94827,2.36256 0.21946,0.49581 0.41724,1.00517 0.65025,1.49285 4.93914,10.82115 13.03198,19.69699 22.95905,25.62234 0.0623,0.0379 0.12734,0.0704 0.18965,0.10838 1.43325,0.84802 2.88817,1.64457 4.39728,2.35984 1.60665,0.8101 3.25393,1.52266 4.93915,2.1729 5.61649,2.16478 10.6613,3.31896 17.85734,3.66305 2.42216,0.22487 16.58936,0.91847 24.99378,0.92389 7.04431,0.005 27.9876,-0.15715 53.86734,-0.13547 25.87973,-0.0217 46.82573,0.14089 53.86734,0.13547 8.40441,-0.005 22.57161,-0.69902 24.99378,-0.92389 7.19333,-0.34409 12.23814,-1.49827 17.85734,-3.66305 1.6825,-0.65024 3.3325,-1.3628 4.93915,-2.1729 1.5091,-0.71527 2.96403,-1.51182 4.39727,-2.35984 0.0623,-0.0379 0.12734,-0.0704 0.18966,-0.10838 9.927066,-5.92535 18.017192,-14.80119 22.95905,-25.62234 0.233005,-0.48768 0.430787,-0.99704 0.650245,-1.49285 0.330541,-0.77759 0.652954,-1.56601 0.950983,-2.36256 1.782754,-4.5788 2.977578,-9.40958 3.446296,-14.44085 0.910342,-12.46844 1.322164,-25.30535 1.192115,-29.50484 -0.21133,-6.92782 -0.157143,-27.51348 -0.135468,-52.81883 -0.02168,-25.305347 -0.07586,-45.891006 0.135468,-52.81882 0.130049,-4.196787 -0.284482,-17.033698 -1.192115,-29.504847 -0.468718,-5.031267 -1.663542,-9.862042 -3.446296,-14.440847 -0.298029,-0.793841 -0.620442,-1.582262 -0.950983,-2.359846 -0.219458,-0.495812 -0.41724,-1.00517 -0.650245,-1.492853 -4.941858,-10.8211535 -13.031984,-19.6969916 -22.95905,-25.6223451 -0.0623,-0.037931 -0.12734,-0.070443 -0.18966,-0.1083741 -1.43324,-0.8480268 -2.88817,-1.6445768 -4.39727,-2.3625548 -1.60665,-0.807387 -3.25394,-1.522656 -4.93915,-2.170192 -5.61649,-2.164772 -10.66401,-3.318956 -17.85734,-3.663044 -2.42217,-0.224876 -16.58937,-0.91847 -24.99378,-0.923889 -7.04432,-0.0054 -27.98761,0.157142 -53.86734,0.135468 -25.87974,0.02167 -46.82574,-0.140887 -53.86734,-0.135468"
         style="fill:#ffffff;fill-opacity:1;stroke-width:0.270935"
         id="path93"
         clip-path="url(#clipPath58)"
         transform="translate(351.03196,18.660455)" /></mask><mask
       maskUnits="userSpaceOnUse"
       id="mask94"><path
         d="m -269.4327,-18.660322 c -8.40442,0.0054 -22.57162,0.699013 -24.99378,0.923889 -7.19333,0.344088 -12.24085,1.500981 -17.85734,3.663044 -1.68522,0.647536 -3.3325,1.362805 -4.93915,2.170192 -1.50911,0.715269 -2.96403,1.514528 -4.39728,2.3625548 -0.0623,0.037931 -0.12734,0.070443 -0.18965,0.1083741 -9.92707,5.9253535 -18.0172,14.8011916 -22.95905,25.6223451 -0.23572,0.487683 -0.43079,0.997041 -0.65025,1.492853 -0.33054,0.777584 -0.65295,1.566005 -0.94827,2.359846 -1.78547,4.578805 -2.97758,9.40958 -3.4463,14.440847 -0.91034,12.46844 -1.32216,25.30806 -1.19482,29.504847 0.21404,6.927814 0.15714,27.513473 0.13546,52.81882 0.0217,25.30535 0.0786,45.89101 -0.13546,52.81883 -0.13005,4.19678 0.28448,17.03369 1.19482,29.50484 0.46872,5.03127 1.66083,9.86205 3.4463,14.44085 0.29803,0.79655 0.62044,1.58226 0.94827,2.36256 0.21946,0.49581 0.41724,1.00517 0.65025,1.49285 4.93914,10.82115 13.03198,19.69699 22.95905,25.62234 0.0623,0.0379 0.12734,0.0704 0.18965,0.10838 1.43325,0.84802 2.88817,1.64457 4.39728,2.35984 1.60665,0.8101 3.25393,1.52266 4.93915,2.1729 5.61649,2.16478 10.6613,3.31896 17.85734,3.66305 2.42216,0.22487 16.58936,0.91847 24.99378,0.92389 7.04431,0.005 27.9876,-0.15715 53.86734,-0.13547 25.87973,-0.0217 46.82573,0.14089 53.86734,0.13547 8.40441,-0.005 22.57161,-0.69902 24.99378,-0.92389 7.19333,-0.34409 12.23814,-1.49827 17.85734,-3.66305 1.6825,-0.65024 3.3325,-1.3628 4.93915,-2.1729 1.5091,-0.71527 2.96403,-1.51182 4.39727,-2.35984 0.0623,-0.0379 0.12734,-0.0704 0.18966,-0.10838 9.927066,-5.92535 18.017192,-14.80119 22.95905,-25.62234 0.233005,-0.48768 0.430787,-0.99704 0.650245,-1.49285 0.330541,-0.77759 0.652954,-1.56601 0.950983,-2.36256 1.782754,-4.5788 2.977578,-9.40958 3.446296,-14.44085 0.910342,-12.46844 1.322164,-25.30535 1.192115,-29.50484 -0.21133,-6.92782 -0.157143,-27.51348 -0.135468,-52.81883 -0.02168,-25.305347 -0.07586,-45.891006 0.135468,-52.81882 0.130049,-4.196787 -0.284482,-17.033698 -1.192115,-29.504847 -0.468718,-5.031267 -1.663542,-9.862042 -3.446296,-14.440847 -0.298029,-0.793841 -0.620442,-1.582262 -0.950983,-2.359846 -0.219458,-0.495812 -0.41724,-1.00517 -0.650245,-1.492853 -4.941858,-10.8211535 -13.031984,-19.6969916 -22.95905,-25.6223451 -0.0623,-0.037931 -0.12734,-0.070443 -0.18966,-0.1083741 -1.43324,-0.8480268 -2.88817,-1.6445768 -4.39727,-2.3625548 -1.60665,-0.807387 -3.25394,-1.522656 -4.93915,-2.170192 -5.61649,-2.164772 -10.66401,-3.318956 -17.85734,-3.663044 -2.42217,-0.224876 -16.58937,-0.91847 -24.99378,-0.923889 -7.04432,-0.0054 -27.98761,0.157142 -53.86734,0.135468 -25.87974,0.02167 -46.82574,-0.140887 -53.86734,-0.135468"
         style="fill:#ffffff;fill-opacity:1;stroke-width:0.270935"
         id="path94"
         clip-path="url(#clipPath58)"
         transform="translate(351.03196,18.660455)" /></mask><mask
       maskUnits="userSpaceOnUse"
       id="mask95"><path
         d="m -269.4327,-18.660322 c -8.40442,0.0054 -22.57162,0.699013 -24.99378,0.923889 -7.19333,0.344088 -12.24085,1.500981 -17.85734,3.663044 -1.68522,0.647536 -3.3325,1.362805 -4.93915,2.170192 -1.50911,0.715269 -2.96403,1.514528 -4.39728,2.3625548 -0.0623,0.037931 -0.12734,0.070443 -0.18965,0.1083741 -9.92707,5.9253535 -18.0172,14.8011916 -22.95905,25.6223451 -0.23572,0.487683 -0.43079,0.997041 -0.65025,1.492853 -0.33054,0.777584 -0.65295,1.566005 -0.94827,2.359846 -1.78547,4.578805 -2.97758,9.40958 -3.4463,14.440847 -0.91034,12.46844 -1.32216,25.30806 -1.19482,29.504847 0.21404,6.927814 0.15714,27.513473 0.13546,52.81882 0.0217,25.30535 0.0786,45.89101 -0.13546,52.81883 -0.13005,4.19678 0.28448,17.03369 1.19482,29.50484 0.46872,5.03127 1.66083,9.86205 3.4463,14.44085 0.29803,0.79655 0.62044,1.58226 0.94827,2.36256 0.21946,0.49581 0.41724,1.00517 0.65025,1.49285 4.93914,10.82115 13.03198,19.69699 22.95905,25.62234 0.0623,0.0379 0.12734,0.0704 0.18965,0.10838 1.43325,0.84802 2.88817,1.64457 4.39728,2.35984 1.60665,0.8101 3.25393,1.52266 4.93915,2.1729 5.61649,2.16478 10.6613,3.31896 17.85734,3.66305 2.42216,0.22487 16.58936,0.91847 24.99378,0.92389 7.04431,0.005 27.9876,-0.15715 53.86734,-0.13547 25.87973,-0.0217 46.82573,0.14089 53.86734,0.13547 8.40441,-0.005 22.57161,-0.69902 24.99378,-0.92389 7.19333,-0.34409 12.23814,-1.49827 17.85734,-3.66305 1.6825,-0.65024 3.3325,-1.3628 4.93915,-2.1729 1.5091,-0.71527 2.96403,-1.51182 4.39727,-2.35984 0.0623,-0.0379 0.12734,-0.0704 0.18966,-0.10838 9.927066,-5.92535 18.017192,-14.80119 22.95905,-25.62234 0.233005,-0.48768 0.430787,-0.99704 0.650245,-1.49285 0.330541,-0.77759 0.652954,-1.56601 0.950983,-2.36256 1.782754,-4.5788 2.977578,-9.40958 3.446296,-14.44085 0.910342,-12.46844 1.322164,-25.30535 1.192115,-29.50484 -0.21133,-6.92782 -0.157143,-27.51348 -0.135468,-52.81883 -0.02168,-25.305347 -0.07586,-45.891006 0.135468,-52.81882 0.130049,-4.196787 -0.284482,-17.033698 -1.192115,-29.504847 -0.468718,-5.031267 -1.663542,-9.862042 -3.446296,-14.440847 -0.298029,-0.793841 -0.620442,-1.582262 -0.950983,-2.359846 -0.219458,-0.495812 -0.41724,-1.00517 -0.650245,-1.492853 -4.941858,-10.8211535 -13.031984,-19.6969916 -22.95905,-25.6223451 -0.0623,-0.037931 -0.12734,-0.070443 -0.18966,-0.1083741 -1.43324,-0.8480268 -2.88817,-1.6445768 -4.39727,-2.3625548 -1.60665,-0.807387 -3.25394,-1.522656 -4.93915,-2.170192 -5.61649,-2.164772 -10.66401,-3.318956 -17.85734,-3.663044 -2.42217,-0.224876 -16.58937,-0.91847 -24.99378,-0.923889 -7.04432,-0.0054 -27.98761,0.157142 -53.86734,0.135468 -25.87974,0.02167 -46.82574,-0.140887 -53.86734,-0.135468"
         style="fill:#ffffff;fill-opacity:1;stroke-width:0.270935"
         id="path95"
         clip-path="url(#clipPath58)"
         transform="translate(351.03196,18.660455)" /></mask><mask
       maskUnits="userSpaceOnUse"
       id="mask96"><path
         d="m -269.4327,-18.660322 c -8.40442,0.0054 -22.57162,0.699013 -24.99378,0.923889 -7.19333,0.344088 -12.24085,1.500981 -17.85734,3.663044 -1.68522,0.647536 -3.3325,1.362805 -4.93915,2.170192 -1.50911,0.715269 -2.96403,1.514528 -4.39728,2.3625548 -0.0623,0.037931 -0.12734,0.070443 -0.18965,0.1083741 -9.92707,5.9253535 -18.0172,14.8011916 -22.95905,25.6223451 -0.23572,0.487683 -0.43079,0.997041 -0.65025,1.492853 -0.33054,0.777584 -0.65295,1.566005 -0.94827,2.359846 -1.78547,4.578805 -2.97758,9.40958 -3.4463,14.440847 -0.91034,12.46844 -1.32216,25.30806 -1.19482,29.504847 0.21404,6.927814 0.15714,27.513473 0.13546,52.81882 0.0217,25.30535 0.0786,45.89101 -0.13546,52.81883 -0.13005,4.19678 0.28448,17.03369 1.19482,29.50484 0.46872,5.03127 1.66083,9.86205 3.4463,14.44085 0.29803,0.79655 0.62044,1.58226 0.94827,2.36256 0.21946,0.49581 0.41724,1.00517 0.65025,1.49285 4.93914,10.82115 13.03198,19.69699 22.95905,25.62234 0.0623,0.0379 0.12734,0.0704 0.18965,0.10838 1.43325,0.84802 2.88817,1.64457 4.39728,2.35984 1.60665,0.8101 3.25393,1.52266 4.93915,2.1729 5.61649,2.16478 10.6613,3.31896 17.85734,3.66305 2.42216,0.22487 16.58936,0.91847 24.99378,0.92389 7.04431,0.005 27.9876,-0.15715 53.86734,-0.13547 25.87973,-0.0217 46.82573,0.14089 53.86734,0.13547 8.40441,-0.005 22.57161,-0.69902 24.99378,-0.92389 7.19333,-0.34409 12.23814,-1.49827 17.85734,-3.66305 1.6825,-0.65024 3.3325,-1.3628 4.93915,-2.1729 1.5091,-0.71527 2.96403,-1.51182 4.39727,-2.35984 0.0623,-0.0379 0.12734,-0.0704 0.18966,-0.10838 9.927066,-5.92535 18.017192,-14.80119 22.95905,-25.62234 0.233005,-0.48768 0.430787,-0.99704 0.650245,-1.49285 0.330541,-0.77759 0.652954,-1.56601 0.950983,-2.36256 1.782754,-4.5788 2.977578,-9.40958 3.446296,-14.44085 0.910342,-12.46844 1.322164,-25.30535 1.192115,-29.50484 -0.21133,-6.92782 -0.157143,-27.51348 -0.135468,-52.81883 -0.02168,-25.305347 -0.07586,-45.891006 0.135468,-52.81882 0.130049,-4.196787 -0.284482,-17.033698 -1.192115,-29.504847 -0.468718,-5.031267 -1.663542,-9.862042 -3.446296,-14.440847 -0.298029,-0.793841 -0.620442,-1.582262 -0.950983,-2.359846 -0.219458,-0.495812 -0.41724,-1.00517 -0.650245,-1.492853 -4.941858,-10.8211535 -13.031984,-19.6969916 -22.95905,-25.6223451 -0.0623,-0.037931 -0.12734,-0.070443 -0.18966,-0.1083741 -1.43324,-0.8480268 -2.88817,-1.6445768 -4.39727,-2.3625548 -1.60665,-0.807387 -3.25394,-1.522656 -4.93915,-2.170192 -5.61649,-2.164772 -10.66401,-3.318956 -17.85734,-3.663044 -2.42217,-0.224876 -16.58937,-0.91847 -24.99378,-0.923889 -7.04432,-0.0054 -27.98761,0.157142 -53.86734,0.135468 -25.87974,0.02167 -46.82574,-0.140887 -53.86734,-0.135468"
         style="fill:#ffffff;fill-opacity:1;stroke-width:0.270935"
         id="path96"
         clip-path="url(#clipPath58)"
         transform="translate(351.03196,18.660455)" /></mask><mask
       maskUnits="userSpaceOnUse"
       id="mask97"><path
         d="m -269.4327,-18.660322 c -8.40442,0.0054 -22.57162,0.699013 -24.99378,0.923889 -7.19333,0.344088 -12.24085,1.500981 -17.85734,3.663044 -1.68522,0.647536 -3.3325,1.362805 -4.93915,2.170192 -1.50911,0.715269 -2.96403,1.514528 -4.39728,2.3625548 -0.0623,0.037931 -0.12734,0.070443 -0.18965,0.1083741 -9.92707,5.9253535 -18.0172,14.8011916 -22.95905,25.6223451 -0.23572,0.487683 -0.43079,0.997041 -0.65025,1.492853 -0.33054,0.777584 -0.65295,1.566005 -0.94827,2.359846 -1.78547,4.578805 -2.97758,9.40958 -3.4463,14.440847 -0.91034,12.46844 -1.32216,25.30806 -1.19482,29.504847 0.21404,6.927814 0.15714,27.513473 0.13546,52.81882 0.0217,25.30535 0.0786,45.89101 -0.13546,52.81883 -0.13005,4.19678 0.28448,17.03369 1.19482,29.50484 0.46872,5.03127 1.66083,9.86205 3.4463,14.44085 0.29803,0.79655 0.62044,1.58226 0.94827,2.36256 0.21946,0.49581 0.41724,1.00517 0.65025,1.49285 4.93914,10.82115 13.03198,19.69699 22.95905,25.62234 0.0623,0.0379 0.12734,0.0704 0.18965,0.10838 1.43325,0.84802 2.88817,1.64457 4.39728,2.35984 1.60665,0.8101 3.25393,1.52266 4.93915,2.1729 5.61649,2.16478 10.6613,3.31896 17.85734,3.66305 2.42216,0.22487 16.58936,0.91847 24.99378,0.92389 7.04431,0.005 27.9876,-0.15715 53.86734,-0.13547 25.87973,-0.0217 46.82573,0.14089 53.86734,0.13547 8.40441,-0.005 22.57161,-0.69902 24.99378,-0.92389 7.19333,-0.34409 12.23814,-1.49827 17.85734,-3.66305 1.6825,-0.65024 3.3325,-1.3628 4.93915,-2.1729 1.5091,-0.71527 2.96403,-1.51182 4.39727,-2.35984 0.0623,-0.0379 0.12734,-0.0704 0.18966,-0.10838 9.927066,-5.92535 18.017192,-14.80119 22.95905,-25.62234 0.233005,-0.48768 0.430787,-0.99704 0.650245,-1.49285 0.330541,-0.77759 0.652954,-1.56601 0.950983,-2.36256 1.782754,-4.5788 2.977578,-9.40958 3.446296,-14.44085 0.910342,-12.46844 1.322164,-25.30535 1.192115,-29.50484 -0.21133,-6.92782 -0.157143,-27.51348 -0.135468,-52.81883 -0.02168,-25.305347 -0.07586,-45.891006 0.135468,-52.81882 0.130049,-4.196787 -0.284482,-17.033698 -1.192115,-29.504847 -0.468718,-5.031267 -1.663542,-9.862042 -3.446296,-14.440847 -0.298029,-0.793841 -0.620442,-1.582262 -0.950983,-2.359846 -0.219458,-0.495812 -0.41724,-1.00517 -0.650245,-1.492853 -4.941858,-10.8211535 -13.031984,-19.6969916 -22.95905,-25.6223451 -0.0623,-0.037931 -0.12734,-0.070443 -0.18966,-0.1083741 -1.43324,-0.8480268 -2.88817,-1.6445768 -4.39727,-2.3625548 -1.60665,-0.807387 -3.25394,-1.522656 -4.93915,-2.170192 -5.61649,-2.164772 -10.66401,-3.318956 -17.85734,-3.663044 -2.42217,-0.224876 -16.58937,-0.91847 -24.99378,-0.923889 -7.04432,-0.0054 -27.98761,0.157142 -53.86734,0.135468 -25.87974,0.02167 -46.82574,-0.140887 -53.86734,-0.135468"
         style="fill:#ffffff;fill-opacity:1;stroke-width:0.270935"
         id="path97"
         clip-path="url(#clipPath58)"
         transform="translate(351.03196,18.660455)" /></mask></defs><g
     inkscape:groupmode="layer"
     id="layer3"
     inkscape:label="Layer 3"><rect
       style="display:inline;fill:#707070;fill-opacity:1;stroke:none;stroke-width:1.22423;stroke-linejoin:round;stroke-dasharray:none;stroke-dashoffset:13.9374"
       id="rect1"
       width="293.70547"
       height="287.21292"
       x="-11.386069"
       y="-5.7188659"
       ry="0"
       mask="url(#mask97)" /></g><g
     inkscape:groupmode="layer"
     id="layer2"
     inkscape:label="Layer 2"
     style="display:inline"><path
       style="fill:none;stroke:#373737;stroke-width:2.64583;stroke-linecap:butt;stroke-linejoin:miter;stroke-dasharray:none;stroke-opacity:1"
       d="m -300.229,401.41849 159.70148,2.13595"
       id="path1"
       mask="url(#mask96)" /><path
       style="display:inline;fill:none;stroke:#373737;stroke-width:2.64583;stroke-linecap:butt;stroke-linejoin:miter;stroke-dasharray:none;stroke-opacity:1"
       d="m -140.52752,403.55444 159.701471,2.13595"
       id="path1-5"
       mask="url(#mask95)" /><path
       style="display:inline;fill:none;stroke:#373737;stroke-width:2.64583;stroke-linecap:butt;stroke-linejoin:miter;stroke-dasharray:none;stroke-opacity:1"
       d="m 19.173951,405.69039 159.701469,2.13595"
       id="path1-5-1"
       mask="url(#mask94)" /><path
       style="display:inline;fill:none;stroke:#373737;stroke-width:2.64583;stroke-linecap:butt;stroke-linejoin:miter;stroke-dasharray:none;stroke-opacity:1"
       d="m 178.87542,407.82634 159.70147,2.13595"
       id="path1-5-1-6"
       mask="url(#mask93)" /><path
       style="display:inline;fill:none;stroke:#373737;stroke-width:2.64583;stroke-linecap:butt;stroke-linejoin:miter;stroke-dasharray:none;stroke-opacity:1"
       d="m 338.57689,409.96229 159.70147,2.13595"
       id="path1-5-1-6-5"
       mask="url(#mask92)" /><path
       style="fill:none;stroke:#373737;stroke-width:2.64583;stroke-linecap:butt;stroke-linejoin:miter;stroke-dasharray:none;stroke-opacity:1"
       d="M 191.65796,-173.5125 -300.229,401.41849"
       id="path2"
       mask="url(#mask91)" /><path
       style="fill:none;stroke:#373737;stroke-width:2.64583;stroke-linecap:butt;stroke-linejoin:miter;stroke-dasharray:none;stroke-opacity:1"
       d="M 191.65796,-173.5125 -140.52752,403.55444"
       id="path3"
       mask="url(#mask90)" /><path
       style="fill:none;stroke:#373737;stroke-width:2.64583;stroke-linecap:butt;stroke-linejoin:miter;stroke-dasharray:none;stroke-opacity:1"
       d="M 191.65796,-173.5125 19.173951,405.6904"
       id="path4"
       mask="url(#mask89)" /><path
       style="fill:none;stroke:#373737;stroke-width:2.64583;stroke-linecap:butt;stroke-linejoin:miter;stroke-dasharray:none;stroke-opacity:1"
       d="M 191.65796,-173.5125 178.87542,407.82635"
       id="path5"
       mask="url(#mask88)" /><path
       style="fill:none;stroke:#373737;stroke-width:2.64583;stroke-linecap:butt;stroke-linejoin:miter;stroke-dasharray:none;stroke-opacity:1"
       d="M 191.65796,-173.5125 338.57689,409.96228"
       id="path6"
       mask="url(#mask87)" /><path
       style="fill:none;stroke:#373737;stroke-width:2.64583;stroke-linecap:butt;stroke-linejoin:miter;stroke-dasharray:none;stroke-opacity:1"
       d="m 191.65796,-173.5125 306.6204,585.61073"
       id="path7"
       mask="url(#mask86)" /><path
       style="fill:none;stroke:#373737;stroke-width:2.64583;stroke-linecap:butt;stroke-linejoin:miter;stroke-dasharray:none;stroke-opacity:1"
       d="m -204.40787,223.67108 736.76762,5.32346"
       id="path8"
       mask="url(#mask85)" /><path
       style="fill:none;stroke:#373737;stroke-width:2.64583;stroke-linecap:butt;stroke-linejoin:miter;stroke-dasharray:none;stroke-opacity:1"
       d="m -114.97365,126.73094 670.75666,3.19408"
       id="path9"
       mask="url(#mask84)" /><path
       style="fill:none;stroke:#373737;stroke-width:2.64583;stroke-linecap:butt;stroke-linejoin:miter;stroke-dasharray:none;stroke-opacity:1"
       d="M -72.562676,51.219039 481.25449,52.202433"
       id="path10"
       sodipodi:nodetypes="cc"
       mask="url(#mask83)" /></g><g
     inkscape:groupmode="layer"
     id="layer4"
     inkscape:label="Layer 4"
     style="display:inline"><path
       style="display:inline;fill:none;stroke:#b20000;stroke-width:7.9375;stroke-linecap:butt;stroke-linejoin:bevel;stroke-dasharray:none;stroke-opacity:1"
       d="m 124.62965,51.569187 62.07677,0.110227 -1.68166,76.480076 -82.836,-1.23362 z"
       id="path11"
       sodipodi:nodetypes="ccccc"
       mask="url(#mask82)" /><path
       style="display:inline;fill:none;stroke:#009900;stroke-width:7.9375;stroke-linecap:butt;stroke-linejoin:bevel;stroke-dasharray:none;stroke-opacity:1"
       d="m 18.181875,127.84718 84.006885,-0.9213 -29.796425,98.7452 -108.918574,-0.78698 z"
       id="path12"
       sodipodi:nodetypes="ccccc"
       mask="url(#mask81)" /><path
       style="display:inline;fill:none;stroke:#3737ff;stroke-width:7.9375;stroke-linecap:butt;stroke-linejoin:bevel;stroke-dasharray:none;stroke-opacity:1"
       d="m 185.02476,128.15951 82.69336,0.39378 24.85484,98.70869 -109.70984,-0.7927 z"
       id="path13"
       sodipodi:nodetypes="ccccc"
       mask="url(#mask80)" /></g><g
     inkscape:label="Layer 1"
     inkscape:groupmode="layer"
     id="layer1"><text
       xml:space="preserve"
       style="font-style:normal;font-variant:normal;font-weight:normal;font-stretch:normal;font-size:100.542px;line-height:1.25;font-family:'v2';-inkscape-font-specification:'v2, Normal';font-variant-ligatures:normal;font-variant-caps:normal;font-variant-numeric:normal;font-variant-east-asian:normal;fill:#ffffff;fill-opacity:1;stroke-width:0.264583"
       x="35.808334"
       y="113.34107"
       id="text1"
       mask="url(#mask79)"><tspan
         sodipodi:role="line"
         id="tspan1"
         style="font-style:normal;font-variant:normal;font-weight:normal;font-stretch:normal;font-size:100.542px;font-family:'v2';-inkscape-font-specification:'v2, Normal';font-variant-ligatures:normal;font-variant-caps:normal;font-variant-numeric:normal;font-variant-east-asian:normal;fill:#ffffff;fill-opacity:1;stroke-width:0.264583"
         x="35.808334"
         y="113.34107"></tspan></text><text
       xml:space="preserve"
       style="font-style:normal;font-variant:normal;font-weight:normal;font-stretch:normal;font-size:113.771px;line-height:1.25;font-family:'v2';-inkscape-font-specification:'v2, Normal';font-variant-ligatures:normal;font-variant-caps:normal;font-variant-numeric:normal;font-variant-east-asian:normal;fill:#ffffff;fill-opacity:1;stroke-width:0.264583"
       x="1.9435061"
       y="218.91382"
       id="text1-4"
       mask="url(#mask78)"><tspan
         sodipodi:role="line"
         id="tspan1-5"
         style="font-style:normal;font-variant:normal;font-weight:normal;font-stretch:normal;font-size:113.771px;font-family:'v2';-inkscape-font-specification:'v2, Normal';font-variant-ligatures:normal;font-variant-caps:normal;font-variant-numeric:normal;font-variant-east-asian:normal;fill:#ffffff;fill-opacity:1;stroke-width:0.264583"
         x="1.9435061"
         y="218.91382"></tspan></text></g></svg>
